<svg width="21" height="20" viewBox="0 0 21 20" fill="none" xmlns="http://www.w3.org/2000/svg">
<path fill-rule="evenodd" clip-rule="evenodd" d="M6.58464 1.02564C6.87115 0.420513 7.48819 0 8.20346 0H12.2966C13.0108 0 13.6278 0.420513 13.9154 1.02564C14.6143 1.03179 15.1597 1.06359 15.6468 1.25436C16.2282 1.48233 16.7339 1.86976 17.1059 2.37231C17.4815 2.87795 17.6575 3.5282 17.9 4.42154L17.9379 4.56103L18.5416 6.78359C18.9445 6.98659 19.2975 7.27663 19.5751 7.63282C20.2116 8.45026 20.3241 9.42359 20.2116 10.5395C20.1011 11.6226 19.7613 12.9867 19.3357 14.6944L19.308 14.8021C19.0389 15.8821 18.8199 16.759 18.561 17.4431C18.2888 18.1569 17.945 18.7415 17.3771 19.1856C16.8102 19.6297 16.1604 19.8215 15.4042 19.9138C14.6787 20 13.7772 20 12.667 20H7.83303C6.72278 20 5.82025 20 5.09577 19.9128C4.33855 19.8226 3.6898 19.6297 3.12188 19.1846C2.55499 18.7415 2.21117 18.1569 1.93897 17.4431C1.67906 16.759 1.46111 15.8821 1.19198 14.8021L1.16436 14.6944C0.738674 12.9867 0.397924 11.6226 0.288434 10.5405C0.175874 9.42257 0.288434 8.45026 0.923887 7.63282C1.21347 7.26154 1.56036 6.98667 1.95739 6.78359L2.56113 4.56103L2.60001 4.42154C2.84253 3.5282 3.01853 2.87795 3.39407 2.37128C3.76626 1.86911 4.27193 1.48205 4.85326 1.25436C5.34034 1.06359 5.88472 1.03077 6.58464 1.02564ZM6.58566 2.56615C5.90825 2.57333 5.63709 2.59897 5.41197 2.68718C5.09881 2.80993 4.82646 3.01857 4.62609 3.28923C4.446 3.53231 4.33957 3.8718 4.04283 4.96615L3.68059 6.29641C4.74274 6.15385 6.11393 6.15385 7.81666 6.15385H12.6823C14.3861 6.15385 15.7573 6.15385 16.8184 6.29641L16.4572 4.96615C16.1594 3.8718 16.054 3.53231 15.8739 3.28923C15.6735 3.01857 15.4012 2.80993 15.088 2.68718C14.8629 2.59897 14.5907 2.57333 13.9133 2.56615C13.7679 2.87247 13.5388 3.13121 13.2527 3.31237C12.9665 3.49353 12.635 3.58971 12.2966 3.58974H8.20346C7.865 3.58971 7.53349 3.49353 7.24734 3.31237C6.96119 3.13121 6.73212 2.87247 6.58668 2.56615H6.58566ZM8.20346 1.53846C8.13561 1.53846 8.07054 1.56548 8.02257 1.61356C7.97459 1.66165 7.94764 1.72687 7.94764 1.79487C7.94764 1.86288 7.97459 1.9281 8.02257 1.97618C8.07054 2.02427 8.13561 2.05128 8.20346 2.05128H12.2966C12.3644 2.05128 12.4295 2.02427 12.4774 1.97618C12.5254 1.9281 12.5524 1.86288 12.5524 1.79487C12.5524 1.72687 12.5254 1.66165 12.4774 1.61356C12.4295 1.56548 12.3644 1.53846 12.2966 1.53846H8.20346ZM3.80338 7.83179C2.8722 7.96718 2.42094 8.21333 2.13544 8.58051C1.84893 8.94667 1.72102 9.4441 1.81618 10.3836C1.91339 11.3436 2.22549 12.599 2.66959 14.3836C2.95406 15.52 3.15053 16.3077 3.37565 16.8964C3.59054 17.4646 3.80236 17.7651 4.06841 17.9733C4.33344 18.1805 4.67521 18.3128 5.27894 18.3856C5.90314 18.4605 6.71152 18.4615 7.88215 18.4615H12.6199C13.7895 18.4615 14.5999 18.4605 15.2231 18.3856C15.8268 18.3138 16.1686 18.1805 16.4336 17.9733C16.6997 17.7651 16.9105 17.4646 17.1274 16.8964C17.3505 16.3077 17.548 15.52 17.8314 14.3836C18.2766 12.599 18.5887 11.3436 18.6849 10.3836C18.781 9.4441 18.6521 8.94564 18.3666 8.57949C18.0811 8.21333 17.6299 7.96718 16.6977 7.83179C15.746 7.69436 14.4546 7.69231 12.6199 7.69231H7.88215C6.04742 7.69231 4.75605 7.69436 3.8044 7.83179H3.80338Z" fill="white"/>
</svg>
