<svg width="66" height="66" viewBox="0 0 66 66" fill="none" xmlns="http://www.w3.org/2000/svg">
<path d="M44.2297 0.646679C44.7818 -0.400423 46.3741 0.210784 46.0837 1.35837L40.4262 23.7199C40.2347 24.4767 40.9455 25.1513 41.6913 24.9205L63.7261 18.1004C64.857 17.7504 65.5507 19.3085 64.5339 19.9146L44.7214 31.7261C44.0508 32.1259 44.0765 33.1055 44.767 33.4697L65.1705 44.2281C66.2177 44.7802 65.6064 46.3724 64.4589 46.0821L42.0973 40.4246C41.3405 40.2331 40.6659 40.9439 40.8967 41.6897L47.7168 63.7245C48.0668 64.8553 46.5088 65.549 45.9026 64.5323L34.0911 44.7198C33.6913 44.0492 32.7117 44.0749 32.3476 44.7654L21.5891 65.1689C21.037 66.216 19.4448 65.6048 19.7351 64.4572L25.3927 42.0957C25.5841 41.3389 24.8733 40.6643 24.1275 40.8951L2.09271 47.7152C0.961884 48.0652 0.268188 46.5072 1.28496 45.901L21.0974 34.0895C21.768 33.6897 21.7423 32.7101 21.0518 32.346L0.648294 21.5875C-0.398808 21.0354 0.212399 19.4432 1.35999 19.7335L23.7215 25.391C24.4784 25.5825 25.1529 24.8717 24.9221 24.1259L18.102 2.09109C17.752 0.96027 19.3101 0.266575 19.9162 1.28335L31.7278 21.0958C32.1275 21.7664 33.1072 21.7407 33.4713 21.0502L44.2297 0.646679Z" fill="white"/>
</svg>
