<svg width="100" height="100" viewBox="0 0 100 100" fill="none" xmlns="http://www.w3.org/2000/svg">
<circle cx="50" cy="50" r="49.5" stroke="white"/>
<path d="M31.6429 45.9999V46.4999H32.1429H39.2857C42.9493 46.4999 45.9286 49.4792 45.9286 53.1428V60.2857C45.9286 63.9492 42.9493 66.9285 39.2857 66.9285H32.1429C28.4793 66.9285 25.5 63.9492 25.5 60.2857V45.1071C25.5 37.9837 31.2694 32.2142 38.3929 32.2142H39.2857C40.985 32.2142 42.3571 33.5864 42.3571 35.2857C42.3571 36.985 40.985 38.3571 39.2857 38.3571H38.3929C34.6681 38.3571 31.6429 41.3823 31.6429 45.1071V45.9999ZM60.2143 45.9999V46.4999H60.7143H67.8571C71.5207 46.4999 74.5 49.4792 74.5 53.1428V60.2857C74.5 63.9492 71.5207 66.9285 67.8571 66.9285H60.7143C57.0507 66.9285 54.0714 63.9492 54.0714 60.2857V45.1071C54.0714 37.9837 59.8409 32.2142 66.9643 32.2142H67.8571C69.5564 32.2142 70.9286 33.5864 70.9286 35.2857C70.9286 36.985 69.5564 38.3571 67.8571 38.3571H66.9643C63.2395 38.3571 60.2143 41.3823 60.2143 45.1071V45.9999Z" fill="#C6F24B" stroke="#1E1E1E"/>
</svg>
