<svg width="18" height="18" viewBox="0 0 18 18" fill="none" xmlns="http://www.w3.org/2000/svg">
<path d="M13.0499 0.5H13.05C13.6281 0.5 14.2017 0.62404 14.7385 0.866389C15.2755 1.1088 15.7663 1.46544 16.1818 1.91822C16.5973 2.37108 16.9289 2.91099 17.1558 3.50811C17.3828 4.10525 17.5 4.74657 17.5 5.3951C17.5 8.02552 16.1258 10.4716 14.3025 12.5876C12.5971 14.5668 10.5453 16.2039 9 17.3738C7.4547 16.2039 5.40289 14.5668 3.69753 12.5876C1.87423 10.4716 0.5 8.02552 0.5 5.3951C0.5 4.08361 0.978403 2.83358 1.81825 1.91822C2.65677 1.0043 3.78436 0.5 4.95 0.5H4.95008C5.65672 0.499888 6.35512 0.685487 6.98648 1.04392C7.61814 1.40254 8.16554 1.92455 8.57916 2.56928L9 3.22525L9.42084 2.56928C9.83446 1.92455 10.3819 1.40254 11.0135 1.04392C11.6449 0.685487 12.3433 0.499888 13.0499 0.5Z" stroke="white"/>
</svg>
